# xmcd
# 
# Track frame offsets:
#     150
#     14047
#     22380
#     38012
#     56255
#     67777
#     82547
#     95427
#     105537
#     122312
#     140855
#     161312
#     176295
#     196927
#     211690
#     227702
#     241007
#     255047
#     269472
#     283147
# 
# Disc length: 4086
# 
# Revision: 2
# Processed by: cddbd v1.5.2PL0 Copyright (c) Steve Scherf et al.
# Submitted via: BonkEnc v1.0.5
# 
DISCID=f80ff414
DTITLE=Various Artist - American Folk Blues Festival '65 [CD5 of 5)
DYEAR=1995
DGENRE=Blues
TTITLE0=Mississippi Fred McDowell - Highway 61
TTITLE1=J. B. Lenoir, Big Walter Horton - Slow Down Woman
TTITLE2=Big Walter Horton, Buddy Guy, Jimmie Lee Robinson, Fred Below - Blues Harp Shuffle
TTITLE3=Big Walter Horton, Buddy Guy, Jimmie Lee Robinson, Fred Below - Christine
TTITLE4=Roosevelt Sykes, Buddy Guy, Jimmie Lee Robinson, Fred Below - Come On Back Home
TTITLE5=Eddie Boyd, Buddy Guy, Jimmie Lee Robinson, Fred Below - Five Long Years
TTITLE6=Eddie Boyd, Buddy Guy, Jimmie Lee Robinson, Fred Below - The Big Question
TTITLE7=Jimmie Lee Robinson, Eddie Boyd, Buddy Guy, Fred Below - Rosa Lee
TTITLE8=John Lee Hooker, Buddy Guy, Fred Below - King of the World
TTITLE9=John Lee Hooker, Buddy Guy, Fred Below - Della Mae
TTITLE10=Buddy Guy, Jimmie Lee Robinson, Fred Below - First Time I Met The Blues
TTITLE11=Big Mama Thornton, Eddie Boyd, Buddy Guy, Jimmie Lee Robinson, Fred Below - Hound Dog
TTITLE12=Doctor Ross - My Black Name Is Ringing
TTITLE13=John Lee Hooker, Buddy Guy, Fred Below - Della Mae (alt take)
TTITLE14=Big Mama Thornton, Eddie Boyd, Buddy Guy, Jimmie Lee Robinson, Fred Below - Hound Dog (alt take)
TTITLE15=Buddy Guy, Jimmie Lee Robinson, Fred Below - South Side Jump
TTITLE16=J.B. Lenoir - If I Get Lucky
TTITLE17=Mississippi Fred McDowell - Got a Letter This Morning
TTITLE18=Roosevelt Sykes, Buddy Guy, Jimmie Lee Robinson, Fred Below - Sail On
TTITLE19=Doctor Ross - Farewell Baby
EXTD=
EXTT0=
EXTT1=
EXTT2=
EXTT3=
EXTT4=
EXTT5=
EXTT6=
EXTT7=
EXTT8=
EXTT9=
EXTT10=
EXTT11=
EXTT12=
EXTT13=
EXTT14=
EXTT15=
EXTT16=
EXTT17=
EXTT18=
EXTT19=
PLAYORDER=
